@startuml
'https://plantuml.com/class-diagram
hide empty members

class GetProductBacklogSortedByPriorityUI

class GetProductBacklogSortedByPriorityController{
    dataManagement
    sortProductBacklogByPriority(projectCode)
    getProductBacklog(projectCode)
    }

class DataManagement{
    getProjectStore()
}

class ProjectStore{
    List<Project>: projectList
    getProjectByCode(projectCode)
}

class Project{
        String: code
        String: name
        String: description
        double: budget
        Typology: typology
        ProductBacklog: productBacklog
        Customer: customer
        int: numberOfPlannedSprints
        String: status
        ProjectTeam: projectTeam
        LocalDate: startDate
        LocalDate: endDate
        List<Activity>: activityList
        List<Sprint>: sprintList
    getProductBacklog()
}

class ProductBacklog{
    List<UserStory>: userStoryList
    sortProductBacklogByPriority()
}

class UserStory {
    String: description
    List<Task>: task list
    String: status
    int: parentID
    int: effort
    int: priority
}

GetProductBacklogSortedByPriorityUI ..|>  GetProductBacklogSortedByPriorityController
GetProductBacklogSortedByPriorityController -- "uses" DataManagement
GetProductBacklogSortedByPriorityController ..|>  "gets" ProjectStore
DataManagement -- ProjectStore
ProjectStore -r- Project
Project "1" o-- "has" ProductBacklog
ProductBacklog  "1" o-- "is composed by"UserStory


@enduml