@startuml
'https://plantuml.com/class-diagram

skinparam linetype ortho
package Infrastructure{
class CreateProjectRoute
}


package InterfaceAdapters{
class CreateProjectController
class RepoProject
}



package ApplicationServices/UseCaseServices{
class AppServiceProject
interface IProjectFactory
class ProjectFactory
}

package Entities/Core/Domain{
package AggregateProject{
class Project
}
package AggregateTypology{
class Typology
}
}




CreateProjectRoute .down.>CreateProjectController

CreateProjectController .down...> AppServiceProject

ProjectFactory ..|> IProjectFactory
AppServiceProject .left.> IProjectFactory


AppServiceProject ....> Project

Project .right.> Typology

AppServiceProject .right..> RepoProject




@enduml