@startuml
'https://plantuml.com/class-diagram

skinparam monochrome true

title CD of the US007
center header
Class Diagram
As Director, I want to associate a human resource (user) to a project.
endheader
center footer SWitCH

package UI{
    class UpdateProjectProductBacklogUI
}

package Controller{
    class UpdateProjectProductBacklogController
}

package Model{
    class DataManagement
    class Project
    class ProductBacklog
    class ProjectStore
}



class AddUserResourceToProjectController  {
- resourceStore
+ requestToAddNewUserResourceToProject() : boolean
+ getResourceList : List<Resource>
+ getResourcesByProjectCode : List<Resource>
}

class DataManagement {
+ getProjectStore() : ProjectStore
}

class ProjectStore{
- projectList : List<Project>
+ getProjectByCode() : Project
}

class Project{
- productBacklog : ProductBacklog
+ getProductBacklog() : ProductBacklog
}

class ProductBacklog{
- userStoryList : List<UserStory>
+ showUserStories() : List<UserStory>
+ moveUserStoryPriority() : boolean
- reorderProductBacklogPriority() : void
}

UpdateProjectProductBacklogUI .r. AddUserResourceToProjectController

AddUserResourceToProjectController ..> DataManagement
DataManagement o-->  ProjectStore : Knows
ProjectStore "1" o-- "0--*" Project
Project "1" *-r- "1" ProductBacklog

AddUserResourceToProjectController  ..>  ProjectStore :  swap priority
@enduml