@startuml
'https://plantuml.com/class-diagram

skinparam linetype ortho
hide members
'hide circle

skinparam minClassWidth 150
skinparam nodesep 80
skinparam ranksep 20

skinparam padding 3

skinparam package  {
    BackgroundColor white
    BorderColor grey
    shadowing false
    FontStyle normal
    FontSize 16
    borderThickness 0.5
    fontColor #000
}

skinparam legend {
    backgroundColor white
    borderColor white
    shadowing false
    FontStyle normal
    FontSize 12
    borderThickness 0.5
    fontColor black
    padding 0
    DesignedBorderColor white
}

skinparam class {
    stereotypeFontSize 10
    fontSize 20
    fontName Helvetica

    arrowColor black
    arrowThickness 1
    attributeIconSize 0

    borderColor black
    borderThickness 0.5
    backgroundColor #eee


}

skinparam entity {
    backgroundColor red
    borderColor black
    borderThickness 0.5

}

skinparam rectangle {
    shadowing false
    fontSize 15
    textAlignment left
    fontStyle italic
    stereotypeFontSize 10
    borderThickness 0.5

}

'TITLE ON TOP
title US013 - As Administrator, I want to create user profiles.

center header ONION
center footer DDD - Domain Driven Design

' Infrastucture ----------------------------------------------------------------

rectangle Infrastructure #80FFFF50  {
    package Routes #7acff5 {
        class CreateProfileRoute
    }
}

' Interface Adapters ----------------------------------------------------------------
rectangle "Interface Adapters" #C0FFC050  {
      rectangle "Controllers" #C0FFC080  {
          package "ImplementedControllers" #7acff5  {
        class CreateProfileController
          }
}
rectangle "Repositories" #C0FFC080  {
          package "Repository" #7acff5  {
        class ProfileRepository
          }
      }
}
' Application services ---------------------------------------------------------
rectangle "Application Services / Use Case Services" #FFAFAF50  {
rectangle "App Services" #FFAFAF80  {
                    package "InterfaceAppServices" #7acff5  {
                              package "InterfaceRepositories" #7acff5  {
                                interface IProfileRepository
                              }
                              interface IProfileFactory
                            }
                             package "ImplementedAppServices" #7acff5  {
                     class CreateProfileService
                     class ProfileFactory
                   }



      }
}
' Entities ---------------------------------------------------------------------

rectangle "Entities / Core / Domain" #FFE0C050  {
    rectangle "Aggregates" #7acff580  {
        package "Profile" <<Aggregate>> #7acff5  {
            class Profile <<Root>>
        }
    }

    package "ValueObjects" #7acff5 {

        class ProfileID <<Value Object>>
        class Name <<Value Object>>
    }
}


CreateProfileRoute ..> CreateProfileController

CreateProfileController ....down> CreateProfileService

CreateProfileService .....> Profile

CreateProfileService ..left> IProfileFactory

IProfileFactory <|.. ProfileFactory

CreateProfileService ..> IProfileRepository

ProfileRepository ..> IProfileRepository

Profile ..down> Name
Profile ......left> ProfileID


'CreateProfileController .down...> AppServiceProfile
'
'ProfileFactory ..|> IProfileFactory
'AppServiceProfile .left.> IProfileFactory
'
'
'AppServiceProfile ....> Profile
'
'
'
'AppServiceProfile .right..> RepoProfile
'



@enduml