@startuml
'https://plantuml.com/class-diagram

package UI{
abstract class CreateTaskUI
}

package "Core"{
    package "Controllers" {

        class CreateTaskController {
        +createTaskInSprint(code, sprintID, name, description, type): boolean
        }
        }
        CreateTaskUI ..|>  CreateTaskController

        package "Domain"{
        class DataManagement{
        -TypologyStore : typologyStore
        -UserStore : userStore
        -ProfileStore : profileStore
        -RoleStore : roleStore
        -ProfileRequestStore : profileRequestStore
        -ProjectStore projectStore
        -ResourceStore resourceStore
        -CustomerStore customerStore

        +getProjectStore();
        }

        class ProjectStore{
        -projectList : List<Project>
        +getProjectByCode(code);
        }

        class Project{
        -sprintList : List<Sprint>
        +getSprintByID(sprintID)
        }

        class Sprint{
        -taskList : List<Task>
        -sprintBacklog: SprintBacklog
        +getSprintBacklog()
        +validateSprintIsNotFinished()
        +createTaskInSprint()
        }

        class Task{
        -taskName : String
        -taskDescription : String
        -taskStatus : String
        -taskType: String
        +validateTaskDates()
        }



        CreateTaskController ..|> "dataManagement\n" DataManagement
        CreateTaskController ..|> "projectStore\l" ProjectStore
        DataManagement "1" - "1" ProjectStore
        ProjectStore "1  " *-right-- "0..*" Project
        Project "1  " *--- "0..*" Sprint
        Sprint "1 " *-left-- "0..*" Task



skinparam nodesep 200

}
}
@enduml